<?xml version="1.0" encoding="UTF-8" standalone="no"?>
<svg
   id="Outline"
   viewBox="0 0 24 24"
   width="512"
   height="512"
   version="1.1"
   sodipodi:docname="list.svg"
   inkscape:version="1.4.3 (0d15f75, 2025-12-25)"
   inkscape:export-filename="List Inactive.png"
   inkscape:export-xdpi="96"
   inkscape:export-ydpi="96"
   xmlns:inkscape="http://www.inkscape.org/namespaces/inkscape"
   xmlns:sodipodi="http://sodipodi.sourceforge.net/DTD/sodipodi-0.dtd"
   xmlns="http://www.w3.org/2000/svg"
   xmlns:svg="http://www.w3.org/2000/svg">
  <defs
     id="defs5" />
  <sodipodi:namedview
     id="namedview5"
     pagecolor="#ffffff"
     bordercolor="#999999"
     borderopacity="1"
     inkscape:showpageshadow="2"
     inkscape:pageopacity="0"
     inkscape:pagecheckerboard="0"
     inkscape:deskcolor="#d1d1d1"
     inkscape:zoom="1.5761719"
     inkscape:cx="256"
     inkscape:cy="256"
     inkscape:window-width="1920"
     inkscape:window-height="1009"
     inkscape:window-x="-8"
     inkscape:window-y="-8"
     inkscape:window-maximized="1"
     inkscape:current-layer="Outline">
    <inkscape:page
       x="0"
       y="0"
       width="24"
       height="24"
       id="page2"
       margin="0"
       bleed="0" />
  </sodipodi:namedview>
  <path
     d="M 7,6 H 23 A 1,1 0 0 0 23,4 H 7 a 1,1 0 0 0 0,2 z"
     id="path1"
     style="fill:#888888;fill-opacity:1" />
  <path
     d="M 23,11 H 7 a 1,1 0 0 0 0,2 h 16 a 1,1 0 0 0 0,-2 z"
     id="path2"
     style="fill:#888888;fill-opacity:1" />
  <path
     d="M 23,18 H 7 a 1,1 0 0 0 0,2 h 16 a 1,1 0 0 0 0,-2 z"
     id="path3"
     style="fill:#888888;fill-opacity:1" />
  <circle
     cx="2"
     cy="5"
     r="2"
     id="circle3"
     style="fill:#888888;fill-opacity:1" />
  <circle
     cx="2"
     cy="12"
     r="2"
     id="circle4"
     style="fill:#888888;fill-opacity:1" />
  <circle
     cx="2"
     cy="19"
     r="2"
     id="circle5"
     style="fill:#888888;fill-opacity:1" />
</svg>
