<?xml version="1.0" encoding="UTF-8" standalone="no"?>
<!-- Generator: Adobe Illustrator 25.0.0, SVG Export Plug-In . SVG Version: 6.00 Build 0)  -->

<svg
   version="1.1"
   id="Capa_1"
   x="0px"
   y="0px"
   viewBox="0 0 512 512"
   xml:space="preserve"
   width="512"
   height="512"
   sodipodi:docname="settings.svg"
   inkscape:export-filename="Settings Active.svg"
   inkscape:export-xdpi="96"
   inkscape:export-ydpi="96"
   inkscape:version="1.4.3 (0d15f75, 2025-12-25)"
   xmlns:inkscape="http://www.inkscape.org/namespaces/inkscape"
   xmlns:sodipodi="http://sodipodi.sourceforge.net/DTD/sodipodi-0.dtd"
   xmlns="http://www.w3.org/2000/svg"
   xmlns:svg="http://www.w3.org/2000/svg"><defs
   id="defs1" /><sodipodi:namedview
   id="namedview1"
   pagecolor="#ffffff"
   bordercolor="#999999"
   borderopacity="1"
   inkscape:showpageshadow="2"
   inkscape:pageopacity="0"
   inkscape:pagecheckerboard="0"
   inkscape:deskcolor="#d1d1d1"
   inkscape:zoom="1.5761719"
   inkscape:cx="256"
   inkscape:cy="256"
   inkscape:window-width="1920"
   inkscape:window-height="1009"
   inkscape:window-x="-8"
   inkscape:window-y="-8"
   inkscape:window-maximized="1"
   inkscape:current-layer="Capa_1"><inkscape:page
     x="0"
     y="0"
     width="512"
     height="512"
     id="page2"
     margin="0"
     bleed="0" /></sodipodi:namedview>
<g
   id="g1"
   style="fill:#888888;fill-opacity:1">
	<path
   d="m 34.283,384 c 17.646,30.626 56.779,41.148 87.405,23.502 0.021,-0.012 0.041,-0.024 0.062,-0.036 l 9.493,-5.483 c 17.92,15.332 38.518,27.222 60.757,35.072 V 448 c 0,35.346 28.654,64 64,64 35.346,0 64,-28.654 64,-64 v -10.944 c 22.242,-7.863 42.841,-19.767 60.757,-35.115 l 9.536,5.504 c 30.633,17.673 69.794,7.167 87.467,-23.467 17.673,-30.633 7.167,-69.794 -23.467,-87.467 v 0 l -9.472,-5.461 c 4.264,-23.201 4.264,-46.985 0,-70.187 l 9.472,-5.461 c 30.633,-17.673 41.14,-56.833 23.467,-87.467 -17.673,-30.633 -56.833,-41.14 -87.467,-23.467 l -9.493,5.483 C 362.862,94.638 342.25,82.77 320,74.944 V 64 C 320,28.654 291.346,0 256,0 220.654,0 192,28.654 192,64 v 10.944 c -22.242,7.863 -42.841,19.767 -60.757,35.115 l -9.536,-5.525 C 91.073,86.86 51.913,97.367 34.24,128 c -17.673,30.633 -7.167,69.794 23.467,87.467 v 0 l 9.472,5.461 c -4.264,23.201 -4.264,46.985 0,70.187 l -9.472,5.461 C 27.158,314.296 16.686,353.38 34.283,384 Z M 256,170.667 c 47.128,0 85.333,38.205 85.333,85.333 0,47.128 -38.205,85.333 -85.333,85.333 -47.128,0 -85.333,-38.205 -85.333,-85.333 0,-47.128 38.205,-85.333 85.333,-85.333 z"
   id="path1"
   style="fill:#888888;fill-opacity:1" />
</g>















</svg>
